# xmcd
# Track frame offsets:
# 150
# 22018
# 56499
# 82588
# 123261
#
# Disc length: 2027 seconds
# Revision: 0
# Processed by: cddbd v1.5.2PL0 Copyright (c) Steve Scherf et al.
# Submitted via: VisiTrax 2.10.2.252 - For more info visit www.synapsa.com
#
DISCID=3007e905
DTITLE=Luther Allison - Live
DYEAR=1900
DGENRE=Blues
TTITLE0=Luther´s shuffle
TTITLE1=I can´t  quit you baby
TTITLE2=I´m leavin
TTITLE3=Rock me baby
TTITLE4=Little red rooster
EXTD=
EXTT0=
EXTT1=
EXTT2=
EXTT3=
EXTT4=
PLAYORDER=
